<?xml version="1.0" encoding="iso-8859-1"?>
<!-- Generator: Adobe Illustrator 19.0.0, SVG Export Plug-In . SVG Version: 6.00 Build 0)  -->
<svg version="1.1" id="Capa_1" xmlns="http://www.w3.org/2000/svg" xmlns:xlink="http://www.w3.org/1999/xlink" x="0px" y="0px"
	 viewBox="0 0 457.48 457.48" style="enable-background:new 0 0 457.48 457.48;" xml:space="preserve">
<path id="XMLID_781_" d="M402.542,322.148c0.003-0.104,0.005-0.208,0.005-0.313s-0.002-0.208-0.005-0.313v-37.848
	c0-4.971-4.029-9-9-9h-18.469v-79.678c15.279-6.095,26.102-21.042,26.102-38.469c0,0,0-16.813,0-16.816c0-0.006,0-0.013,0-0.02
	c0-0.005,0-0.024,0-0.028c-0.005-0.625-25.705-132.389-25.705-132.389c-0.825-4.226-4.528-7.275-8.833-7.275H296.2
	c-0.116-0.001-0.233-0.001-0.351,0H161.626c-0.118-0.001-0.234-0.001-0.352,0H90.842c-4.305,0-8.008,3.049-8.833,7.275
	c0,0-25.679,131.602-25.699,132.138c0,0.004-0.006,17.115-0.006,17.115c0,17.426,10.822,32.372,26.099,38.468v79.679h-18.47
	c-4.971,0-9,4.029-9,9V448.48c0,4.971,4.029,9,9,9h329.609c4.971,0,9-4.029,9-9v-39.68c0.003-0.104,0.005-0.208,0.005-0.313
	s-0.002-0.208-0.005-0.313V322.148z M383.174,156.529c0,12.901-10.495,23.396-23.395,23.396c-12.901,0-23.396-10.496-23.396-23.396
	v-7.781h46.792V156.529z M291.109,259.466c-1.688-1.688-3.977-2.636-6.364-2.636H172.732c-2.387,0-4.676,0.948-6.364,2.636
	l-15.21,15.209h-50.756v-76.837c12.21-0.791,22.996-6.901,30.056-16.029c7.578,9.796,19.445,16.116,32.76,16.116
	c13.314,0,25.181-6.319,32.758-16.115c7.578,9.796,19.445,16.115,32.761,16.115c13.316,0,25.183-6.319,32.76-16.117
	c7.578,9.798,19.445,16.117,32.761,16.117c13.314,0,25.182-6.32,32.76-16.116c7.06,9.126,17.845,15.236,30.053,16.028v76.837
	h-50.755L291.109,259.466z M293.589,287.403v30.705l-12.572,12.573H176.461l-12.574-12.573v-30.704l12.574-12.574h104.557
	L293.589,287.403z M139.822,156.529v-7.781h46.792v7.781c0,12.901-10.495,23.396-23.395,23.396
	C150.318,179.925,139.822,169.43,139.822,156.529z M205.339,156.529v-7.781h46.794v7.781c0,12.901-10.495,23.396-23.396,23.396
	C215.836,179.925,205.339,169.43,205.339,156.529z M270.862,156.529v-7.781h46.793v7.781c0,12.901-10.496,23.396-23.396,23.396
	C281.358,179.925,270.862,169.43,270.862,156.529z M359.224,18.001l22.022,112.747h-52.281L306.943,18.001H359.224z M237.738,18.001
	h50.865l22.022,112.747h-72.887V18.001z M168.872,18.001h50.866v112.747h-72.889L168.872,18.001z M98.254,18.001h52.277
	l-22.022,112.747H76.232L98.254,18.001z M74.304,156.529v-7.781h46.792v7.781c0,12.901-10.495,23.396-23.396,23.396
	C84.799,179.925,74.304,169.43,74.304,156.529z M72.933,292.675h72.954v20.16H72.933V292.675z M384.542,439.48H72.933v-21.993
	h311.609V439.48z M384.542,399.487H72.933v-68.651h78.226l15.21,15.209c1.688,1.688,3.977,2.636,6.364,2.636h112.013
	c2.387,0,4.676-0.948,6.364-2.636l15.208-15.209h78.224V399.487z M384.542,312.836h-72.952v-20.16h72.952V312.836z"/>
<g>
</g>
<g>
</g>
<g>
</g>
<g>
</g>
<g>
</g>
<g>
</g>
<g>
</g>
<g>
</g>
<g>
</g>
<g>
</g>
<g>
</g>
<g>
</g>
<g>
</g>
<g>
</g>
<g>
</g>
</svg>
