<?xml version="1.0"?>
<svg xmlns="http://www.w3.org/2000/svg" xmlns:xlink="http://www.w3.org/1999/xlink" version="1.1" id="Capa_1" x="0px" y="0px" viewBox="0 0 511.999 511.999" style="enable-background:new 0 0 511.999 511.999;" xml:space="preserve" width="512px" height="512px" class=""><g transform="matrix(-1 0 0 1 511.999 0)"><circle style="fill:#181E68" cx="256" cy="266.999" r="245" data-original="#91E0E8" class="" data-old_color="#91E0E8"/><path style="fill:#FFCA51" d="M359.486,76.059l36.516,36.517c0.554,0.554,1.306,0.865,2.086,0.865c0.785,0,1.535-0.312,2.089-0.865  c12.855-12.854,12.855-33.771,0-46.627l-31.445-31.444C372.717,49.051,369.157,64.676,359.486,76.059z" data-original="#FFCA51" class="" data-old_color="#FFCA51"/><path style="fill:#5F494F" d="M400.177,65.949l-6.339-6.338c7.537,13.518,5.578,30.946-5.893,42.418  c-0.445,0.446-1.012,0.746-1.622,0.868l9.679,9.679c0.554,0.554,1.306,0.865,2.086,0.865c0.785,0,1.535-0.312,2.089-0.865  C413.032,99.721,413.032,78.804,400.177,65.949z" data-original="#231F20" class="active-path" data-old_color="#231F20"/><g>
	<path style="fill:#EEF6FF" d="M277.088,90.999h19.523l-10.392-18h-9.131c-4.971,0-9,4.029-9,9S272.117,90.999,277.088,90.999z" data-original="#EEF6FF" class="" data-old_color="#EEF6FF"/>
	<path style="fill:#EEF6FF" d="M243.355,187.999h109.258l-33.647-58.279H295.97c-5.935,0-10.792,4.371-10.792,9.713   c0,5.343,4.857,9.715,10.792,9.715h24.284c5.935,0,10.792,4.369,10.792,9.713c0,5.341-4.857,9.712-10.792,9.712h-76.899   c-5.937,0-10.794,4.371-10.794,9.715C232.561,183.63,237.419,187.999,243.355,187.999z" data-original="#EEF6FF" class="" data-old_color="#EEF6FF"/>
	<path style="fill:#EEF6FF" d="M431.146,168.572h-26.72c-5.937,0-10.792-4.371-10.792-9.712c0-5.344,4.855-9.713,10.792-9.713   h66.405c-3.667-6.67-7.629-13.154-11.88-19.428H352.453l33.647,58.28h45.046c5.938,0,10.792-4.369,10.792-9.712   C441.938,172.943,437.084,168.572,431.146,168.572z" data-original="#EEF6FF" class="" data-old_color="#EEF6FF"/>
</g><path style="fill:#FF7DB2;" d="M420.054,245.808L331.593,92.589c5.65-0.831,11.243-2.708,16.489-5.737  C370.339,74,377.967,45.537,365.117,23.279c-12.854-22.26-41.318-29.888-63.575-17.037c-19.356,11.175-27.64,34.155-21.026,54.596  c1.061,3.968,2.644,7.862,4.793,11.585L394.074,260.81c2.398,4.154,3.035,8.993,1.794,13.626c-1.242,4.634-4.214,8.506-8.369,10.905  c-7.42,4.283-16.649,2.646-22.211-3.426c2.843-35.308-23.425-63.456-64.928-70.304c-3.886-1.045-7.968-1.611-12.184-1.611  c-0.912,0-164.385,0-164.385,0c-1.842,0-3.33,1.489-3.33,3.329c0,16.515,13.427,29.952,29.936,29.969  c-0.156,0.387-0.247,0.807-0.247,1.25c0,10.44,5.372,19.647,13.493,25.015c-5.173,7.915-9.08,16.322-11.417,25.041  c-11.828,44.139,20.583,80.376,73.285,84.254l3.067,18.573c0.448,2.714,3.064,4.934,5.814,4.934h15.131  c2.75,0,5.366-2.22,5.814-4.934l3.348-20.273c1.805-0.31,3.602-0.663,5.392-1.04l3.52,21.314c0.448,2.714,3.064,4.934,5.814,4.934  h15.131c2.75,0,5.366-2.22,5.814-4.934l5.568-33.722c24.54-12.093,44.909-30.355,56.163-51.556  c6.926,3.653,14.668,5.585,22.512,5.584c8.13,0,16.366-2.066,23.898-6.416c11.094-6.405,19.03-16.747,22.347-29.12  C428.16,269.827,426.459,256.902,420.054,245.808z" data-original="#FF7DB2" class=""/><g>
	<path style="fill:#F24976;" d="M234.458,440.481v19.518h15v-19.518c3.031-2.281,5-5.897,5-9.982s-1.969-7.702-5-9.982v-18.653h-15   v18.653c-3.031,2.28-5,5.897-5,9.982C229.458,434.585,231.427,438.2,234.458,440.481z" data-original="#F24976" class=""/>
	<path style="fill:#F24976;" d="M273.476,440.481v19.518h15v-19.518c3.031-2.281,5-5.897,5-9.982s-1.969-7.702-5-9.982v-18.653h-15   v18.653c-3.031,2.28-5,5.897-5,9.982C268.476,434.585,270.445,438.2,273.476,440.481z" data-original="#F24976" class=""/>
</g><path style="fill:#FF97C1;" d="M116.871,358.934c-7.011-2.81-13.785-6.24-20.19-10.253c-0.488-0.305-0.749-0.868-0.666-1.436  c0.338-2.321,0.746-4.665,1.214-6.968c0.077-0.385-0.076-0.778-0.394-1.009c-3.098-2.247-6.107-4.621-9.022-7.105  c-4.581,10.218-7.643,19.941-9.667,28.699c-8.311,35.947-1.605,63.182-1.316,64.324c0.359,1.422,1.522,2.501,2.968,2.756  c0.216,0.037,0.432,0.056,0.646,0.056c1.221,0,2.382-0.601,3.083-1.634c9.208-13.56,19.31-24.557,29.583-33.477  C113.141,383.244,114.077,371.66,116.871,358.934z" data-original="#FF97C1" class=""/><path style="fill:#FF7DB2;" d="M98.208,349.609c-0.509-0.31-1.022-0.611-1.527-0.928c-0.488-0.305-0.749-0.868-0.666-1.436  c0.338-2.321,0.746-4.665,1.214-6.968c0.077-0.385-0.076-0.778-0.394-1.009c-3.098-2.247-6.107-4.621-9.022-7.105  c-4.581,10.218-7.643,19.941-9.667,28.699c-8.311,35.947-1.605,63.182-1.316,64.324c0.359,1.422,1.522,2.501,2.968,2.756  c0.216,0.037,0.432,0.056,0.646,0.056c1.221,0,2.382-0.601,3.083-1.634c2.767-4.074,5.615-7.911,8.524-11.536  c-1.38-11.279-2.259-30.808,3.095-53.966C95.977,357.265,96.993,353.499,98.208,349.609z" data-original="#FF7DB2" class=""/><path style="fill:#EEF6FF" d="M246.208,72.999H106.377c-21.131,16.322-39.521,36.015-54.365,58.279h98.135  c5.938,0,10.792-4.369,10.792-9.712c0-5.344-4.854-9.715-10.792-9.715h-26.72c-5.937,0-10.792-4.371-10.792-9.712  c0-5.344,4.855-9.713,10.792-9.713h122.781c5.936,0,10.792-4.372,10.792-9.715C257,77.37,252.143,72.999,246.208,72.999z" data-original="#EEF6FF" class="" data-old_color="#EEF6FF"/><path style="fill:#FF7DB2;" d="M123.128,369.923c-0.49-0.239-0.793-0.747-0.772-1.294c0.084-2.146,0.23-4.327,0.448-6.668  c0.042-0.457-0.232-0.885-0.666-1.036c-2-0.7-3.981-1.459-5.945-2.26c-0.016,0.065-0.032,0.133-0.047,0.198  c-8.311,35.947-1.605,63.182-1.316,64.324c0.359,1.422,1.522,2.501,2.968,2.756c0.216,0.037,0.432,0.056,0.646,0.056  c1.221,0,2.382-0.601,3.083-1.634c12.718-18.728,27.14-32.565,41.366-42.796C149.15,379.961,135.616,376.015,123.128,369.923z" data-original="#FF7DB2" class=""/><path style="fill:#F26DA3;" d="M124.835,370.725c-0.569-0.267-1.142-0.527-1.707-0.803c-0.49-0.239-0.793-0.747-0.772-1.294  c0.084-2.146,0.23-4.327,0.448-6.668c0.042-0.457-0.232-0.885-0.666-1.036c-2-0.7-3.981-1.459-5.945-2.26  c-0.016,0.065-0.032,0.133-0.047,0.198c-8.311,35.947-1.605,63.182-1.316,64.324c0.359,1.422,1.522,2.501,2.968,2.756  c0.216,0.037,0.432,0.056,0.646,0.056c1.221,0,2.382-0.601,3.083-1.634c1.146-1.688,2.309-3.324,3.481-4.933  C123.634,411.922,121.287,393.83,124.835,370.725z" data-original="#F26DA3" class=""/><path style="fill:#FF97C1;" d="M153.488,258.173c0.219-0.137,0.297-0.414,0.183-0.646c-2.005-4.066-3.021-8.434-3.021-12.98  c0-0.358,0.07-0.716,0.21-1.062c0.063-0.155,0.045-0.33-0.049-0.468c-0.093-0.138-0.247-0.221-0.413-0.221  c-1.172-0.001-2.325-0.079-3.462-0.214c-32.402,14.768-58.67,41.008-73.438,74.604c-0.452,1.028-0.254,2.227,0.505,3.055  c6.941,7.574,14.557,14.303,22.691,20.159C103.541,306.336,123.964,276.635,153.488,258.173z" data-original="#FF97C1" class=""/><path style="fill:#FF7DB2;" d="M153.973,290.367c0.048-0.052,0.084-0.113,0.107-0.18c2.413-7.219,5.889-14.182,10.248-20.788  c-4.564-2.91-8.283-7.031-10.682-11.919c-31.626,19.604-53.158,52.132-58.621,89.621c-0.141,0.96,0.302,1.913,1.124,2.428  c8.327,5.216,17.102,9.386,26.146,12.512C124.77,335.334,135.878,310.093,153.973,290.367z" data-original="#FF7DB2" class=""/><path style="fill:#FF97C1;" d="M162.836,348.024c-11.419-14.881-14.844-33.762-9.645-53.163c0.6-2.237,1.306-4.454,2.109-6.647  c-20.485,21.446-32.75,49.824-33.944,80.377c-0.036,0.942,0.487,1.817,1.333,2.23c29.712,14.496,63.312,16.395,93.789,6.011  C193.544,373.337,174.532,363.267,162.836,348.024z" data-original="#FF97C1" class=""/><g>
	<path style="fill:#F757A8;" d="M288.176,209.999c-0.912,0-164.385,0-164.385,0c-1.842,0-3.33,1.489-3.33,3.329   c0,16.515,13.427,29.952,29.936,29.969c-0.156,0.387-0.247,0.807-0.247,1.25c0,16.523,13.444,29.968,29.969,29.968h9.041   c0.443,16.14,13.703,29.135,29.946,29.135h72.424v-0.133c24.292-1.721,43.47-21.959,43.47-46.692   C335,230.963,314.036,209.999,288.176,209.999z" data-original="#F757A8" class=""/>
	<path style="fill:#F757A8;" d="M219.105,303.149c-15.803,0-29.013-12.852-29.446-28.648c-0.008-0.271-0.23-0.486-0.5-0.486h-9.041   c-16.249,0-29.469-13.219-29.469-29.468c0-0.359,0.071-0.717,0.211-1.063c0.061-0.154,0.044-0.329-0.049-0.467   s-0.248-0.221-0.414-0.221c-16.232-0.017-29.437-13.236-29.437-29.469c0-1.56,1.27-2.829,2.83-2.829h164.385   c25.543,0,46.324,20.782,46.324,46.326c0,24.194-18.891,44.484-43.006,46.192c-0.118,0.009-0.224,0.057-0.305,0.132   L219.105,303.149L219.105,303.149z" data-original="#F757A8" class=""/>
</g><path style="fill:#F26DA3;" d="M241.599,394.999c-2.75,0-5.366-2.22-5.814-4.934l-3.067-18.573  c-52.702-3.878-85.113-40.115-73.285-84.254c1.544-5.763,3.782-11.388,6.609-16.827c-0.727-0.398-1.442-0.816-2.132-1.271  c-5.31,8.037-9.307,16.59-11.685,25.463c-11.828,44.139,20.583,80.376,73.285,84.254l3.067,18.573  c0.448,2.714,3.064,4.934,5.814,4.934h15.131c2.75,0,5.366-2.22,5.814-4.934l0.401-2.431L241.599,394.999L241.599,394.999z" data-original="#F26DA3" class=""/><path style="fill:#F757A8;" d="M395.867,274.434c-1.242,4.634-4.214,8.506-8.369,10.905c-1.195,0.69-2.439,1.211-3.707,1.601  c4.595,1.398,9.729,0.984,14.207-1.601c4.155-2.399,7.127-6.272,8.369-10.905c1.241-4.633,0.604-9.472-1.794-13.626L295.808,72.422  c-2.149-3.723-3.732-7.617-4.793-11.585c-6.613-20.44,1.671-43.421,21.026-54.596c5.712-3.298,11.834-5.238,17.995-5.938  c-9.555-1.088-19.528,0.76-28.495,5.938c-19.356,11.175-27.64,34.155-21.026,54.596c1.061,3.968,2.644,7.862,4.793,11.585  l108.765,188.387C396.472,264.963,397.108,269.801,395.867,274.434z" data-original="#F757A8" class=""/><circle style="fill:#5F494F" cx="340.04" cy="37.977" r="10.516" data-original="#231F20" class="active-path" data-old_color="#231F20"/><path d="M336.969,37.977c0-4.494,2.825-8.319,6.791-9.824c-1.159-0.44-2.411-0.691-3.725-0.691c-5.807,0-10.516,4.708-10.516,10.516  c0,5.806,4.709,10.516,10.516,10.516c1.313,0,2.565-0.252,3.725-0.691C339.794,46.296,336.969,42.469,336.969,37.977z" data-original="#000000" class="" data-old_color="#000000" style="fill:#000000"/><path style="fill:#D15286;" d="M302.068,292.866v0.133h-72.424c-16.243,0-29.503-12.995-29.946-29.135h-9.041  c-16.524,0-29.969-13.444-29.969-29.968c0-0.443,0.091-0.863,0.247-1.25c-13.984-0.014-25.754-9.66-29.027-22.648  c-5.143,0-8.117,0-8.117,0c-1.842,0-3.33,1.489-3.33,3.329c0,16.515,13.427,29.952,29.936,29.969  c-0.156,0.387-0.247,0.807-0.247,1.25c0,16.523,13.444,29.968,29.969,29.968h9.041c0.443,16.14,13.703,29.135,29.946,29.135h72.424  v-0.133c14.341-1.016,26.895-8.487,34.777-19.523C319.414,289.026,311.096,292.226,302.068,292.866z" data-original="#D15286" class=""/><path style="fill:#52BBEF;" d="M103.815,458.999c41.799,33.176,94.674,53,152.185,53s110.386-19.824,152.186-53H103.815z" data-original="#52BBEF" class=""/></g> </svg>
